<svg width="307" height="760" viewBox="0 0 307 760" fill="none" xmlns="http://www.w3.org/2000/svg">
<path fill-rule="evenodd" clip-rule="evenodd" d="M18.3034 353.985C15.7892 355.533 14.3185 358.064 14.0399 361.32C13.5219 367.373 18.5062 372.569 29.0407 376.955C32.6917 378.475 40.1331 380.95 40.5702 380.789C40.7258 380.732 42.1211 378.612 43.5415 376.276C49.0075 367.285 51.4741 360.269 51.013 355.024C50.878 353.488 49.8631 350.739 49.0881 349.81C47.8011 348.267 46.8064 347.464 45.3267 346.775C43.5914 345.966 42.4213 345.759 40.6151 345.942C36.9026 346.317 33.6816 348.68 31.2596 352.807L30.6389 353.865L29.1824 353.366C26.6661 352.505 24.552 352.267 22.2933 352.591C21.0989 352.762 19.2266 353.416 18.3034 353.985Z" fill="#F59FA5" fill-opacity="0.53"/>
<path fill-rule="evenodd" clip-rule="evenodd" d="M249.741 490.217C247.53 489.811 245.412 490.487 243.6 492.177C240.232 495.319 240.417 500.774 244.157 508.593C245.453 511.303 248.412 516.475 248.742 516.607C248.859 516.654 250.726 516.171 252.717 515.578C260.381 513.297 265.342 510.604 267.745 507.419C268.449 506.486 269.27 504.425 269.302 503.508C269.357 501.987 269.201 501.03 268.713 499.89C268.141 498.554 267.583 497.843 266.467 497.028C264.173 495.353 261.148 495.046 257.679 496.137L256.791 496.416L256.219 495.396C255.231 493.633 254.154 492.425 252.71 491.46C251.946 490.949 250.553 490.366 249.741 490.217Z" fill="#F59FA5" fill-opacity="0.56"/>
<path fill-rule="evenodd" clip-rule="evenodd" d="M43.8992 634.316C42.5413 635.062 41.7032 636.336 41.4697 638.009C41.0356 641.119 43.5053 643.901 48.9024 646.381C50.7729 647.24 54.6021 648.67 54.8352 648.596C54.9182 648.57 55.7058 647.506 56.5123 646.331C59.6159 641.809 61.096 638.243 60.9958 635.529C60.9665 634.735 60.5091 633.297 60.1284 632.802C59.4961 631.979 58.997 631.545 58.2409 631.159C57.3541 630.706 56.7471 630.575 55.7966 630.632C53.8429 630.748 52.093 631.9 50.7139 633.977L50.3605 634.51L49.6114 634.222C48.3172 633.726 47.2168 633.56 46.0256 633.68C45.3957 633.743 44.3978 634.042 43.8992 634.316Z" fill="#F59FA5" fill-opacity="0.55"/>
<path fill-rule="evenodd" clip-rule="evenodd" d="M254.644 695.613C251.933 695.705 249.614 697.043 247.92 699.491C244.771 704.04 246.411 710.387 252.857 718.591C255.091 721.435 259.926 726.738 260.348 726.807C260.498 726.832 262.572 725.785 264.764 724.578C273.198 719.934 278.341 715.5 280.342 711.149C280.928 709.874 281.358 707.246 281.157 706.164C280.825 704.365 280.392 703.284 279.52 702.073C278.497 700.654 277.654 699.964 276.127 699.296C272.987 697.922 269.343 698.34 265.541 700.511L264.567 701.067L263.627 700.018C262.003 698.206 260.419 697.067 258.466 696.307C257.433 695.905 255.64 695.579 254.644 695.613Z" fill="#F59FA5" fill-opacity="0.67"/>
<path fill-rule="evenodd" clip-rule="evenodd" d="M209.717 281.985C208.125 282.982 207.2 284.595 207.036 286.66C206.732 290.498 209.925 293.758 216.644 296.469C218.973 297.409 223.717 298.929 223.994 298.824C224.093 298.787 224.972 297.435 225.865 295.946C229.305 290.215 230.844 285.753 230.529 282.433C230.436 281.461 229.779 279.726 229.282 279.143C228.457 278.173 227.821 277.671 226.877 277.244C225.77 276.742 225.025 276.619 223.876 276.746C221.516 277.007 219.477 278.526 217.954 281.156L217.564 281.83L216.635 281.523C215.031 280.994 213.685 280.856 212.25 281.076C211.491 281.192 210.302 281.619 209.717 281.985Z" fill="#F59FA5"/>
<path fill-rule="evenodd" clip-rule="evenodd" d="M210.349 16.6307C208.106 16.4696 206.075 17.3743 204.46 19.2532C201.457 22.7457 202.239 28.1469 206.815 35.5085C208.401 38.0597 211.91 42.8763 212.252 42.9709C212.374 43.0045 214.176 42.3193 216.091 41.5116C223.457 38.4037 228.093 35.1817 230.132 31.7526C230.729 30.7485 231.319 28.6091 231.251 27.6947C231.138 26.176 230.878 25.2421 230.268 24.163C229.552 22.8974 228.92 22.2521 227.721 21.5645C225.257 20.1513 222.216 20.1785 218.889 21.6434L218.036 22.0187L217.356 21.0673C216.18 19.4234 214.977 18.3411 213.436 17.5402C212.621 17.1166 211.172 16.6899 210.349 16.6307Z" fill="#F59FA5" fill-opacity="0.72"/>
<path d="M157.435 423.75L146.177 417.25L134.897 423.787L134.876 436.824L146.134 443.324L157.414 436.787L157.435 423.75Z" stroke="#F59FA5" stroke-miterlimit="10"/>
<path d="M157.322 423.684L146.042 430.222L146.02 443.259" stroke="#F59FA5" stroke-miterlimit="10"/>
<path d="M146.042 430.222L134.897 423.787" stroke="#F59FA5" stroke-miterlimit="10"/>
<path d="M116.547 752.403L125.163 737.454L116.474 722.49L99.1699 722.474L90.5546 737.424L99.2431 752.389L116.547 752.403Z" stroke="#F59FA5" stroke-miterlimit="10"/>
<path d="M116.634 752.253L107.945 737.289L90.6415 737.274" stroke="#F59FA5" stroke-miterlimit="10"/>
<path d="M107.945 737.289L116.474 722.49" stroke="#F59FA5" stroke-miterlimit="10"/>
<path d="M306.247 229.881V212.627L291.247 204L276.247 212.627V229.881L291.247 238.509L306.247 229.881Z" stroke="#F59FA5" stroke-miterlimit="10"/>
<path d="M306.247 229.707L291.247 221.081L276.247 229.707" stroke="#F59FA5" stroke-miterlimit="10"/>
<path d="M291.247 221.081V204" stroke="#F59FA5" stroke-miterlimit="10"/>
<path d="M81.9086 28.2381L73.2883 9.41235L52.6126 7.4939L40.5566 24.4001L49.1768 43.2258L69.8531 45.1453L81.9086 28.2381Z" stroke="#F59FA5" stroke-miterlimit="10"/>
<path d="M81.8216 28.0482L61.1459 26.1298L49.0899 43.036" stroke="#F59FA5" stroke-miterlimit="10"/>
<path d="M61.1459 26.1298L52.6125 7.4939" stroke="#F59FA5" stroke-miterlimit="10"/>
<path d="M30.9373 541.577L51.5093 529.7L51.4694 505.877L30.8587 493.932L10.2866 505.809L10.3253 529.632L30.9373 541.577Z" stroke="#F59FA5" stroke-miterlimit="10"/>
<path d="M31.1447 541.457L31.1048 517.635L10.494 505.689" stroke="#F59FA5" stroke-miterlimit="10"/>
<path d="M31.1048 517.635L51.4694 505.877" stroke="#F59FA5" stroke-miterlimit="10"/>
<path d="M210.821 632.855L218.837 617.576L209.561 602.968L192.27 603.639L184.255 618.919L193.53 633.528L210.821 632.855Z" stroke="#F59FA5" stroke-miterlimit="10"/>
<path d="M210.902 632.701L201.626 618.094L184.335 618.765" stroke="#F59FA5" stroke-miterlimit="10"/>
<path d="M201.626 618.094L209.561 602.968" stroke="#F59FA5" stroke-miterlimit="10"/>
<path d="M90.8223 215.385L80.1913 201.795L63.0614 204.242L56.5619 220.279L67.193 233.869L84.3235 231.423L90.8223 215.385Z" stroke="#F59FA5" stroke-miterlimit="10"/>
<path d="M90.7151 215.248L73.5852 217.695L67.0858 233.732" stroke="#F59FA5" stroke-miterlimit="10"/>
<path d="M73.5852 217.695L63.0614 204.242" stroke="#F59FA5" stroke-miterlimit="10"/>
</svg>
