<svg width="141" height="162" viewBox="0 0 141 162" fill="none" xmlns="http://www.w3.org/2000/svg">
<path d="M139.541 120.521V40.8389L70.2706 1L1 40.8389V120.521L70.2706 160.365L139.541 120.521Z" stroke="white" stroke-width="1.5" stroke-miterlimit="10"/>
<path d="M139.541 119.718L70.2706 79.8789L1 119.718" stroke="white" stroke-width="1.5" stroke-miterlimit="10"/>
<path d="M70.2706 79.8789V1" stroke="white" stroke-width="1.5" stroke-miterlimit="10"/>
<path fill-rule="evenodd" clip-rule="evenodd" d="M38.9435 40.4355C31.192 42.0124 25.1546 47.0459 21.4419 55.0266C14.5404 69.8614 22.262 87.6492 44.6812 108.56C52.4513 115.807 68.8649 129 70.1122 129C70.5562 129 76.0237 124.937 81.7552 120.347C103.81 102.688 116.501 87.23 120.194 73.5283C121.275 69.5165 121.267 61.616 120.179 58.5431C118.371 53.4398 116.614 50.4824 113.533 47.3595C109.919 43.6971 107.17 42.084 102.461 40.8632C92.7838 38.3545 82.5015 41.336 72.5966 49.5224L70.0583 51.62L66.8589 49.0022C61.3314 44.4786 56.2381 41.9077 50.2612 40.6238C47.1011 39.9448 41.7898 39.8567 38.9435 40.4355Z" fill="#F37F74" fill-opacity="0.64"/>
</svg>
